# xmcd
#
# Track frame offsets: 
#        183
#        23275
#        53690
#        82508
#        106050
#        120228
#        141088
#        161070
#        182568
#        205110
#        224138
#        250150
#        277505
#        305418
#
# Disc length: 4377 seconds
#
# Revision: 2
# Processed by: cddbd v1.5.2PL0 Copyright (c) Steve Scherf et al.
# Submitted via: ExactAudioCopy v0.99pb5
#
DISCID=a611170e
DTITLE=The Whispers - Love Thing (The Hits Collection)
DYEAR=1996
DGENRE=Soul
TTITLE0=It's a Love Thing
TTITLE1=And the Beat Goes On
TTITLE2=My Girl
TTITLE3=Can't Do Without Your Love
TTITLE4=Cruisin' In
TTITLE5=Welcome Into My Dreams
TTITLE6=Only You
TTITLE7=Rock Steady
TTITLE8=Lady
TTITLE9=Emergency
TTITLE10=Keep On Lovin' Me
TTITLE11=Tonight
TTITLE12=Imagination
TTITLE13=I Want to Make it With You
EXTD=
EXTT0=
EXTT1=
EXTT2=
EXTT3=
EXTT4=
EXTT5=
EXTT6=
EXTT7=
EXTT8=
EXTT9=
EXTT10=
EXTT11=
EXTT12=
EXTT13=
PLAYORDER=
